<?xml version="1.0" encoding="utf-8"?>
<!-- Svg Vector Icons : http://www.onlinewebfonts.com/icon -->
<!DOCTYPE svg PUBLIC "-//W3C//DTD SVG 1.1//EN" "http://www.w3.org/Graphics/SVG/1.1/DTD/svg11.dtd">
<svg version="1.1" xmlns="http://www.w3.org/2000/svg" xmlns:xlink="http://www.w3.org/1999/xlink" x="0px" y="0px" viewBox="0 0 1000 1000" enable-background="new 0 0 1000 1000" xml:space="preserve">
<metadata> Svg Vector Icons : http://www.onlinewebfonts.com/icon </metadata>
<g><g transform="translate(0.000000,511.000000) scale(0.100000,-0.100000)"><path d="M1794.6,1723.9c-30.6-10.2-339.4-188.9-689.1-400.7L475.2,940.4l2261.1-7.6c1245.4-2.6,3279.4-2.6,4522.3,0l2261.1,7.6l-645.7,375.2c-354.7,206.7-678.8,385.4-717.1,400.7C8077.8,1746.9,1891.6,1752,1794.6,1723.9z"/><path d="M100-399.4v-1122.9h4900h4900v1122.9V723.5H5000H100V-399.4z M8062.5-93.2v-204.2h-306.3H7450v204.2V111h306.2h306.3V-93.2z M9287.5-93.2v-204.2h-306.3H8675v204.2V111h306.3h306.3V-93.2z M1325-501.5v-204.2h-204.2H916.7v204.2v204.2h204.2H1325V-501.5z M2141.7-501.5v-204.2h-204.2h-204.2v204.2v204.2h204.2h204.2V-501.5z M2958.3-501.5v-204.2h-204.2H2550v204.2v204.2h204.2h204.2V-501.5z M3775-501.5v-204.2h-204.2h-204.2v204.2v204.2h204.2H3775V-501.5z M4591.7-501.5v-204.2h-204.2h-204.2v204.2v204.2h204.2h204.2V-501.5z M5408.3-501.5v-204.2h-204.2H5000v204.2v204.2h204.2h204.2V-501.5z M6225-501.5v-204.2h-204.2h-204.2v204.2v204.2h204.2H6225V-501.5z M7041.7-501.5v-204.2h-204.2h-204.2v204.2v204.2h204.2h204.2V-501.5z M8062.5-705.7v-204.2h-306.3H7450v204.2v204.2h306.2h306.3V-705.7z M9287.5-705.7v-204.2h-306.3H8675v204.2v204.2h306.3h306.3V-705.7z"/></g></g>
</svg>